<mxfile host="app.diagrams.net" modified="2021-03-25T10:43:24.405Z" agent="5.0 (Macintosh; Intel Mac OS X 11_1_0) AppleWebKit/537.36 (KHTML, like Gecko) Chrome/89.0.4389.82 Safari/537.36" etag="0AcjBxra_hxrKyprsS3t" version="14.5.1" type="github">
  <diagram id="2ORULyKUraoqu3Yf6mNr" name="Page-1">
    <mxGraphModel dx="1186" dy="706" grid="1" gridSize="10" guides="1" tooltips="1" connect="1" arrows="1" fold="1" page="1" pageScale="1" pageWidth="1169" pageHeight="1654" math="0" shadow="0">
      <root>
        <mxCell id="0" />
        <mxCell id="1" parent="0" />
        <mxCell id="6zVq_JOS9x9FdNU69iAo-7" style="edgeStyle=orthogonalEdgeStyle;rounded=0;orthogonalLoop=1;jettySize=auto;html=1;entryX=0;entryY=0.5;entryDx=0;entryDy=0;" parent="1" source="6zVq_JOS9x9FdNU69iAo-1" target="6zVq_JOS9x9FdNU69iAo-2" edge="1">
          <mxGeometry relative="1" as="geometry" />
        </mxCell>
        <mxCell id="6zVq_JOS9x9FdNU69iAo-1" value="Customer" style="shape=umlActor;verticalLabelPosition=bottom;verticalAlign=top;html=1;outlineConnect=0;" parent="1" vertex="1">
          <mxGeometry x="90" y="250" width="30" height="60" as="geometry" />
        </mxCell>
        <mxCell id="6zVq_JOS9x9FdNU69iAo-6" style="edgeStyle=orthogonalEdgeStyle;rounded=0;orthogonalLoop=1;jettySize=auto;html=1;entryX=0;entryY=0.5;entryDx=0;entryDy=0;" parent="1" source="6zVq_JOS9x9FdNU69iAo-2" target="6zVq_JOS9x9FdNU69iAo-4" edge="1">
          <mxGeometry relative="1" as="geometry" />
        </mxCell>
        <mxCell id="6zVq_JOS9x9FdNU69iAo-2" value="HTML-page/ web- server" style="rounded=0;whiteSpace=wrap;html=1;" parent="1" vertex="1">
          <mxGeometry x="210" y="255" width="100" height="50" as="geometry" />
        </mxCell>
        <mxCell id="6zVq_JOS9x9FdNU69iAo-12" style="edgeStyle=orthogonalEdgeStyle;rounded=0;orthogonalLoop=1;jettySize=auto;html=1;exitX=0.25;exitY=1;exitDx=0;exitDy=0;" parent="1" source="6zVq_JOS9x9FdNU69iAo-4" target="6zVq_JOS9x9FdNU69iAo-1" edge="1">
          <mxGeometry relative="1" as="geometry">
            <Array as="points">
              <mxPoint x="425" y="305" />
              <mxPoint x="425" y="390" />
              <mxPoint x="105" y="390" />
            </Array>
          </mxGeometry>
        </mxCell>
        <mxCell id="6zVq_JOS9x9FdNU69iAo-16" value="Feedback" style="edgeLabel;html=1;align=center;verticalAlign=middle;resizable=0;points=[];" parent="6zVq_JOS9x9FdNU69iAo-12" vertex="1" connectable="0">
          <mxGeometry x="-0.1905" y="1" relative="1" as="geometry">
            <mxPoint as="offset" />
          </mxGeometry>
        </mxCell>
        <mxCell id="6zVq_JOS9x9FdNU69iAo-4" value="readDFA_server.py" style="rounded=0;whiteSpace=wrap;html=1;" parent="1" vertex="1">
          <mxGeometry x="380" y="255" width="120" height="50" as="geometry" />
        </mxCell>
        <mxCell id="6zVq_JOS9x9FdNU69iAo-13" value="Potential weld line model (NX)" style="rounded=0;whiteSpace=wrap;html=1;" parent="1" vertex="1">
          <mxGeometry x="650" y="255" width="100" height="50" as="geometry" />
        </mxCell>
        <mxCell id="6zVq_JOS9x9FdNU69iAo-24" style="edgeStyle=orthogonalEdgeStyle;rounded=0;orthogonalLoop=1;jettySize=auto;html=1;exitX=1;exitY=0.5;exitDx=0;exitDy=0;" parent="1" source="6zVq_JOS9x9FdNU69iAo-4" target="6zVq_JOS9x9FdNU69iAo-13" edge="1">
          <mxGeometry relative="1" as="geometry">
            <mxPoint x="665" y="155" as="sourcePoint" />
          </mxGeometry>
        </mxCell>
        <mxCell id="6zVq_JOS9x9FdNU69iAo-25" value="Generate NX model" style="edgeLabel;html=1;align=center;verticalAlign=middle;resizable=0;points=[];" parent="6zVq_JOS9x9FdNU69iAo-24" vertex="1" connectable="0">
          <mxGeometry x="-0.3444" y="-2" relative="1" as="geometry">
            <mxPoint x="21" y="-2" as="offset" />
          </mxGeometry>
        </mxCell>
      </root>
    </mxGraphModel>
  </diagram>
</mxfile>
